<svg xmlns="http://www.w3.org/2000/svg" version="1.1" xmlns:xlink="http://www.w3.org/1999/xlink" xmlns:svgjs="http://svgjs.com/svgjs" width="512" height="512" x="0" y="0" viewBox="0 0 512 512" style="enable-background:new 0 0 512 512" xml:space="preserve" class=""><g><path d="m496.76 287.897c0-17.618-10.272-33.215-25.584-40.479 4.932-7.327 7.641-16.022 7.641-25.015 0-24.697-20.093-44.79-44.79-44.79h-114.319c42.658-82.38 30.914-119.185 19.701-133.995-9.161-12.101-23.634-17.25-38.711-13.771-17.236 3.974-30.695 18.299-34.288 36.496-10.288 52.114-44.716 99.866-97.443 135.563v-8.727c0-19.36-15.751-35.111-35.112-35.111h-83.503c-19.361 0-35.112 15.751-35.112 35.111v254.928c0 19.361 15.751 35.112 35.112 35.112h83.502c19.361 0 35.112-15.751 35.112-35.112v-.799l47.643 16.001c.718.241 1.471.364 2.229.364h206.215c24.697 0 44.79-20.093 44.79-44.791 0-10.671-3.674-20.686-10.316-28.633 11.968-8.222 19.289-21.811 19.289-36.859 0-8.992-2.708-17.688-7.641-25.015 15.313-7.263 25.585-22.861 25.585-40.478zm-341.793 160.21c0 11.642-9.471 21.112-21.112 21.112h-83.503c-11.641 0-21.112-9.471-21.112-21.112v-254.928c0-11.641 9.471-21.111 21.112-21.111h83.502c11.641 0 21.112 9.471 21.112 21.111v254.928zm303.312-130.075h-99.544c-3.866 0-7 3.134-7 7s3.134 7 7 7h97.451c5.507 5.718 8.631 13.366 8.631 21.358 0 12.405-7.249 23.35-18.551 28.237h-87.531c-3.866 0-7 3.134-7 7s3.134 7 7 7h86.49c6.772 5.858 10.619 14.211 10.619 23.255 0 16.979-13.813 30.791-30.79 30.791h-205.071l-51.016-17.134v-213.913c60.225-38.244 99.659-91.226 111.178-149.572 2.525-12.794 11.827-22.828 23.697-25.564 9.693-2.23 18.586.895 24.405 8.579 4.786 6.321 9.811 18.771 6.571 42.188-3.308 23.907-14.381 53.177-32.912 86.993-1.188 2.169-1.145 4.804.116 6.932s3.55 3.433 6.023 3.433h125.981c16.978 0 30.79 13.813 30.79 30.79 0 7.992-3.124 15.641-8.631 21.358h-97.451c-3.866 0-7 3.134-7 7s3.134 7 7 7h99.544c14.219 2.957 24.481 15.532 24.481 30.135s-10.261 27.177-24.48 30.134zm-366.175 75.177c-17.48 0-31.701 14.221-31.701 31.701 0 17.479 14.221 31.7 31.701 31.7 17.479 0 31.7-14.221 31.7-31.7 0-17.48-14.221-31.701-31.7-31.701zm0 49.402c-9.76 0-17.701-7.94-17.701-17.7 0-9.761 7.94-17.701 17.701-17.701 9.76 0 17.7 7.94 17.7 17.701 0 9.759-7.94 17.7-17.7 17.7z" fill="#FFB81C" data-original="#000000" class=""></path></g></svg>